<?xml version="1.0" standalone="no"?><svg xmlns="http://www.w3.org/2000/svg" viewBox="0 0 1440 320"><path fill="#5000ca" fill-opacity="1" d="M0,320L18.5,304C36.9,288,74,256,111,224C147.7,192,185,160,222,128C258.5,96,295,64,332,90.7C369.2,117,406,203,443,245.3C480,288,517,288,554,293.3C590.8,299,628,309,665,282.7C701.5,256,738,192,775,170.7C812.3,149,849,171,886,165.3C923.1,160,960,128,997,128C1033.8,128,1071,160,1108,181.3C1144.6,203,1182,213,1218,224C1255.4,235,1292,245,1329,218.7C1366.2,192,1403,128,1422,96L1440,64L1440,320L1421.5,320C1403.1,320,1366,320,1329,320C1292.3,320,1255,320,1218,320C1181.5,320,1145,320,1108,320C1070.8,320,1034,320,997,320C960,320,923,320,886,320C849.2,320,812,320,775,320C738.5,320,702,320,665,320C627.7,320,591,320,554,320C516.9,320,480,320,443,320C406.2,320,369,320,332,320C295.4,320,258,320,222,320C184.6,320,148,320,111,320C73.8,320,37,320,18,320L0,320Z"></path></svg>