<svg id="visual" viewBox="0 0 960 540" width="960" height="540" xmlns="http://www.w3.org/2000/svg" xmlns:xlink="http://www.w3.org/1999/xlink" version="1.1"><rect x="0" y="0" width="960" height="540" fill="#DC3545"></rect><path d="M0 186L22.8 184.5C45.7 183 91.3 180 137 179.2C182.7 178.3 228.3 179.7 274 163.7C319.7 147.7 365.3 114.3 411.2 111C457 107.7 503 134.3 548.8 139.5C594.7 144.7 640.3 128.3 686 130.5C731.7 132.7 777.3 153.3 823 157.2C868.7 161 914.3 148 937.2 141.5L960 135L960 0L937.2 0C914.3 0 868.7 0 823 0C777.3 0 731.7 0 686 0C640.3 0 594.7 0 548.8 0C503 0 457 0 411.2 0C365.3 0 319.7 0 274 0C228.3 0 182.7 0 137 0C91.3 0 45.7 0 22.8 0L0 0Z" fill="#17A2B8" stroke-linecap="round" stroke-linejoin="miter"></path></svg>