<?xml version="1.0" standalone="no"?><svg xmlns="http://www.w3.org/2000/svg" viewBox="0 0 1440 320"><path fill="#DC3545" fill-opacity="1" d="M0,128L30,144C60,160,120,192,180,197.3C240,203,300,181,360,176C420,171,480,181,540,192C600,203,660,213,720,181.3C780,149,840,75,900,74.7C960,75,1020,149,1080,176C1140,203,1200,181,1260,192C1320,203,1380,245,1410,266.7L1440,288L1440,320L1410,320C1380,320,1320,320,1260,320C1200,320,1140,320,1080,320C1020,320,960,320,900,320C840,320,780,320,720,320C660,320,600,320,540,320C480,320,420,320,360,320C300,320,240,320,180,320C120,320,60,320,30,320L0,320Z"></path></svg>