<?xml version="1.0" standalone="no"?><svg xmlns="http://www.w3.org/2000/svg" viewBox="0 0 1440 320"><path fill="#5000ca" fill-opacity="1" d="M0,320L18.5,304C36.9,288,74,256,111,224C147.7,192,185,160,222,128C258.5,96,295,64,332,90.7C369.2,117,406,203,443,245.3C480,288,517,288,554,293.3C590.8,299,628,309,665,282.7C701.5,256,738,192,775,170.7C812.3,149,849,171,886,165.3C923.1,160,960,128,997,128C1033.8,128,1071,160,1108,181.3C1144.6,203,1182,213,1218,224C1255.4,235,1292,245,1329,218.7C1366.2,192,1403,128,1422,96L1440,64L1440,0L1421.5,0C1403.1,0,1366,0,1329,0C1292.3,0,1255,0,1218,0C1181.5,0,1145,0,1108,0C1070.8,0,1034,0,997,0C960,0,923,0,886,0C849.2,0,812,0,775,0C738.5,0,702,0,665,0C627.7,0,591,0,554,0C516.9,0,480,0,443,0C406.2,0,369,0,332,0C295.4,0,258,0,222,0C184.6,0,148,0,111,0C73.8,0,37,0,18,0L0,0Z"></path></svg>